<svg xmlns="http://www.w3.org/2000/svg" width="100" height="100" viewBox="0 0 100 100">
  <g fill="#f0f0f0" opacity="0.3">
    <path d="M25 30 
             C15 40, 10 55, 20 65 
             C30 75, 40 70, 50 60 
             C60 50, 55 35, 45 30 
             C35 25, 30 25, 25 30 Z">
    </path>
    <path d="M50 20 
             C40 30, 35 45, 45 55 
             C55 65, 65 60, 75 50 
             C85 40, 80 25, 70 20 
             C60 15, 55 15, 50 20 Z">
    </path>
    <path d="M75 30 
             C65 40, 60 55, 70 65 
             C80 75, 90 70, 95 60 
             C100 50, 95 35, 85 30 
             C75 25, 80 25, 75 30 Z">
    </path>
  </g>
</svg>
